<svg id="visual" viewBox="0 0 960 540" width="960" height="540" xmlns="http://www.w3.org/2000/svg" xmlns:xlink="http://www.w3.org/1999/xlink" version="1.1"><rect x="0" y="0" width="960" height="540" fill="#def0ff"></rect><defs><linearGradient id="grad1_0" x1="43.8%" y1="0%" x2="100%" y2="100%"><stop offset="14.444444444444446%" stop-color="#3564ff" stop-opacity="1"></stop><stop offset="85.55555555555554%" stop-color="#3564ff" stop-opacity="1"></stop></linearGradient></defs><defs><linearGradient id="grad1_1" x1="43.8%" y1="0%" x2="100%" y2="100%"><stop offset="14.444444444444446%" stop-color="#3564ff" stop-opacity="1"></stop><stop offset="85.55555555555554%" stop-color="#3e8dff" stop-opacity="1"></stop></linearGradient></defs><defs><linearGradient id="grad1_2" x1="43.8%" y1="0%" x2="100%" y2="100%"><stop offset="14.444444444444446%" stop-color="#6bb1ff" stop-opacity="1"></stop><stop offset="85.55555555555554%" stop-color="#3e8dff" stop-opacity="1"></stop></linearGradient></defs><defs><linearGradient id="grad1_3" x1="43.8%" y1="0%" x2="100%" y2="100%"><stop offset="14.444444444444446%" stop-color="#6bb1ff" stop-opacity="1"></stop><stop offset="85.55555555555554%" stop-color="#a1d2ff" stop-opacity="1"></stop></linearGradient></defs><defs><linearGradient id="grad1_4" x1="43.8%" y1="0%" x2="100%" y2="100%"><stop offset="14.444444444444446%" stop-color="#def0ff" stop-opacity="1"></stop><stop offset="85.55555555555554%" stop-color="#a1d2ff" stop-opacity="1"></stop></linearGradient></defs><defs><linearGradient id="grad2_0" x1="0%" y1="0%" x2="56.3%" y2="100%"><stop offset="14.444444444444446%" stop-color="#3564ff" stop-opacity="1"></stop><stop offset="85.55555555555554%" stop-color="#3564ff" stop-opacity="1"></stop></linearGradient></defs><defs><linearGradient id="grad2_1" x1="0%" y1="0%" x2="56.3%" y2="100%"><stop offset="14.444444444444446%" stop-color="#3e8dff" stop-opacity="1"></stop><stop offset="85.55555555555554%" stop-color="#3564ff" stop-opacity="1"></stop></linearGradient></defs><defs><linearGradient id="grad2_2" x1="0%" y1="0%" x2="56.3%" y2="100%"><stop offset="14.444444444444446%" stop-color="#3e8dff" stop-opacity="1"></stop><stop offset="85.55555555555554%" stop-color="#6bb1ff" stop-opacity="1"></stop></linearGradient></defs><defs><linearGradient id="grad2_3" x1="0%" y1="0%" x2="56.3%" y2="100%"><stop offset="14.444444444444446%" stop-color="#a1d2ff" stop-opacity="1"></stop><stop offset="85.55555555555554%" stop-color="#6bb1ff" stop-opacity="1"></stop></linearGradient></defs><defs><linearGradient id="grad2_4" x1="0%" y1="0%" x2="56.3%" y2="100%"><stop offset="14.444444444444446%" stop-color="#a1d2ff" stop-opacity="1"></stop><stop offset="85.55555555555554%" stop-color="#def0ff" stop-opacity="1"></stop></linearGradient></defs><g transform="translate(960, 0)"><path d="M0 459C-35.1 458.2 -70.2 457.4 -102.1 447.5C-134.1 437.6 -162.9 418.7 -194.8 404.5C-226.7 390.4 -261.8 381 -284.9 357.3C-308.1 333.6 -319.2 295.4 -327.6 261.2C-335.9 227 -341.5 196.8 -352.3 169.6C-363.1 142.5 -379.1 118.5 -397.8 90.8C-416.4 63 -437.7 31.5 -459 0L0 0Z" fill="#bfe1ff"></path><path d="M0 367.2C-28.1 366.5 -56.2 365.9 -81.7 358C-107.3 350.1 -130.3 334.9 -155.9 323.6C-181.4 312.3 -209.5 304.8 -227.9 285.8C-246.4 266.8 -255.4 236.4 -262.1 209C-268.8 181.6 -273.2 157.4 -281.8 135.7C-290.5 114 -303.3 94.8 -318.2 72.6C-333.1 50.4 -350.2 25.2 -367.2 0L0 0Z" fill="#85c2ff"></path><path d="M0 275.4C-21.1 274.9 -42.1 274.4 -61.3 268.5C-80.5 262.6 -97.7 251.2 -116.9 242.7C-136 234.2 -157.1 228.6 -171 214.4C-184.8 200.1 -191.5 177.3 -196.6 156.7C-201.6 136.2 -204.9 118.1 -211.4 101.8C-217.8 85.5 -227.5 71.1 -238.7 54.5C-249.9 37.8 -262.6 18.9 -275.4 0L0 0Z" fill="#529fff"></path><path d="M0 183.6C-14 183.3 -28.1 182.9 -40.9 179C-53.6 175 -65.2 167.5 -77.9 161.8C-90.7 156.2 -104.7 152.4 -114 142.9C-123.2 133.4 -127.7 118.2 -131 104.5C-134.4 90.8 -136.6 78.7 -140.9 67.9C-145.2 57 -151.6 47.4 -159.1 36.3C-166.6 25.2 -175.1 12.6 -183.6 0L0 0Z" fill="#3379ff"></path><path d="M0 91.8C-7 91.6 -14 91.5 -20.4 89.5C-26.8 87.5 -32.6 83.7 -39 80.9C-45.3 78.1 -52.4 76.2 -57 71.5C-61.6 66.7 -63.8 59.1 -65.5 52.2C-67.2 45.4 -68.3 39.4 -70.5 33.9C-72.6 28.5 -75.8 23.7 -79.6 18.2C-83.3 12.6 -87.5 6.3 -91.8 0L0 0Z" fill="#3564ff"></path></g><g transform="translate(0, 540)"><path d="M0 -459C35.7 -456.9 71.3 -454.7 100.4 -439.7C129.4 -424.7 151.8 -396.7 185.7 -385.6C219.6 -374.5 265 -380.2 286.2 -358.9C307.4 -337.5 304.4 -289.2 326.8 -260.6C349.2 -232 397 -223.3 409 -197C421.1 -170.7 397.4 -127 399.7 -91.2C402.1 -55.5 430.5 -27.7 459 0L0 0Z" fill="#bfe1ff"></path><path d="M0 -367.2C28.5 -365.5 57.1 -363.8 80.3 -351.8C103.5 -339.7 121.4 -317.4 148.6 -308.5C175.7 -299.6 212 -304.1 228.9 -287.1C245.9 -270 243.5 -231.4 261.4 -208.5C279.4 -185.6 317.6 -178.6 327.2 -157.6C336.9 -136.6 317.9 -101.6 319.8 -73C321.7 -44.4 344.4 -22.2 367.2 0L0 0Z" fill="#85c2ff"></path><path d="M0 -275.4C21.4 -274.1 42.8 -272.8 60.2 -263.8C77.6 -254.8 91.1 -238 111.4 -231.4C131.8 -224.7 159 -228.1 171.7 -215.3C184.4 -202.5 182.6 -173.5 196.1 -156.4C209.5 -139.2 238.2 -134 245.4 -118.2C252.6 -102.4 238.4 -76.2 239.8 -54.7C241.3 -33.3 258.3 -16.6 275.4 0L0 0Z" fill="#529fff"></path><path d="M0 -183.6C14.3 -182.7 28.5 -181.9 40.1 -175.9C51.8 -169.9 60.7 -158.7 74.3 -154.2C87.8 -149.8 106 -152.1 114.5 -143.5C123 -135 121.8 -115.7 130.7 -104.2C139.7 -92.8 158.8 -89.3 163.6 -78.8C168.4 -68.3 158.9 -50.8 159.9 -36.5C160.8 -22.2 172.2 -11.1 183.6 0L0 0Z" fill="#3379ff"></path><path d="M0 -91.8C7.1 -91.4 14.3 -90.9 20.1 -87.9C25.9 -84.9 30.4 -79.3 37.1 -77.1C43.9 -74.9 53 -76 57.2 -71.8C61.5 -67.5 60.9 -57.8 65.4 -52.1C69.8 -46.4 79.4 -44.7 81.8 -39.4C84.2 -34.1 79.5 -25.4 79.9 -18.2C80.4 -11.1 86.1 -5.5 91.8 0L0 0Z" fill="#3564ff"></path></g></svg>