<svg id="visual" viewBox="0 0 960 540" width="960" height="540" xmlns="http://www.w3.org/2000/svg" xmlns:xlink="http://www.w3.org/1999/xlink" version="1.1"><rect x="0" y="0" width="960" height="540" fill="#0060f1"></rect><g transform="translate(490.44632275348454 227.6341910428328)"><path d="M222.3 -255.1C260.4 -233 244.4 -136.7 236.3 -59.8C228.2 17 228 74.2 196.7 99.5C165.3 124.7 102.9 117.8 38 169.9C-26.9 222 -94.3 333 -152.5 344.3C-210.8 355.5 -260 267 -266.7 187.1C-273.4 107.1 -237.6 35.8 -221.6 -36.2C-205.5 -108.3 -209.1 -180.9 -175.5 -203.8C-141.8 -226.7 -70.9 -199.9 10.6 -212.5C92.1 -225.1 184.3 -277.3 222.3 -255.1" fill="#bff3ff"></path></g></svg>