<svg id="visual" viewBox="0 0 1000 300" width="1000" height="300" xmlns="http://www.w3.org/2000/svg" xmlns:xlink="http://www.w3.org/1999/xlink" version="1.1"><rect x="0" y="0" width="1000" height="300" fill="#001220"></rect><defs><linearGradient id="grad1_0" x1="70%" y1="0%" x2="100%" y2="100%"><stop offset="-16.66666666666667%" stop-color="#1e40af" stop-opacity="1"></stop><stop offset="116.66666666666666%" stop-color="#1e40af" stop-opacity="1"></stop></linearGradient></defs><defs><linearGradient id="grad1_1" x1="70%" y1="0%" x2="100%" y2="100%"><stop offset="-16.66666666666667%" stop-color="#1e40af" stop-opacity="1"></stop><stop offset="116.66666666666666%" stop-color="#00398c" stop-opacity="1"></stop></linearGradient></defs><defs><linearGradient id="grad1_2" x1="70%" y1="0%" x2="100%" y2="100%"><stop offset="-16.66666666666667%" stop-color="#002e67" stop-opacity="1"></stop><stop offset="116.66666666666666%" stop-color="#00398c" stop-opacity="1"></stop></linearGradient></defs><defs><linearGradient id="grad1_3" x1="70%" y1="0%" x2="100%" y2="100%"><stop offset="-16.66666666666667%" stop-color="#002e67" stop-opacity="1"></stop><stop offset="116.66666666666666%" stop-color="#002142" stop-opacity="1"></stop></linearGradient></defs><defs><linearGradient id="grad1_4" x1="70%" y1="0%" x2="100%" y2="100%"><stop offset="-16.66666666666667%" stop-color="#001220" stop-opacity="1"></stop><stop offset="116.66666666666666%" stop-color="#002142" stop-opacity="1"></stop></linearGradient></defs><defs><linearGradient id="grad2_0" x1="0%" y1="0%" x2="30%" y2="100%"><stop offset="-16.66666666666667%" stop-color="#1e40af" stop-opacity="1"></stop><stop offset="116.66666666666666%" stop-color="#1e40af" stop-opacity="1"></stop></linearGradient></defs><defs><linearGradient id="grad2_1" x1="0%" y1="0%" x2="30%" y2="100%"><stop offset="-16.66666666666667%" stop-color="#00398c" stop-opacity="1"></stop><stop offset="116.66666666666666%" stop-color="#1e40af" stop-opacity="1"></stop></linearGradient></defs><defs><linearGradient id="grad2_2" x1="0%" y1="0%" x2="30%" y2="100%"><stop offset="-16.66666666666667%" stop-color="#00398c" stop-opacity="1"></stop><stop offset="116.66666666666666%" stop-color="#002e67" stop-opacity="1"></stop></linearGradient></defs><defs><linearGradient id="grad2_3" x1="0%" y1="0%" x2="30%" y2="100%"><stop offset="-16.66666666666667%" stop-color="#002142" stop-opacity="1"></stop><stop offset="116.66666666666666%" stop-color="#002e67" stop-opacity="1"></stop></linearGradient></defs><defs><linearGradient id="grad2_4" x1="0%" y1="0%" x2="30%" y2="100%"><stop offset="-16.66666666666667%" stop-color="#002142" stop-opacity="1"></stop><stop offset="116.66666666666666%" stop-color="#001220" stop-opacity="1"></stop></linearGradient></defs><g transform="translate(1000, 0)"><path d="M0 270C-23.2 251.1 -46.4 232.2 -72.6 223.5C-98.9 214.8 -128.2 216.4 -148.1 203.9C-168.1 191.3 -178.6 164.6 -197.4 143.4C-216.2 122.2 -243.3 106.4 -256.8 83.4C-270.3 60.4 -270.1 30.2 -270 0L0 0Z" fill="#001a31"></path><path d="M0 216C-18.5 200.9 -37.1 185.7 -58.1 178.8C-79.1 171.9 -102.6 173.1 -118.5 163.1C-134.4 153.1 -142.9 131.7 -157.9 114.7C-173 97.8 -194.6 85.1 -205.4 66.7C-216.2 48.4 -216.1 24.2 -216 0L0 0Z" fill="#002755"></path><path d="M0 162C-13.9 150.6 -27.8 139.3 -43.6 134.1C-59.3 128.9 -76.9 129.9 -88.9 122.3C-100.8 114.8 -107.2 98.8 -118.4 86.1C-129.7 73.3 -146 63.9 -154.1 50.1C-162.2 36.3 -162.1 18.1 -162 0L0 0Z" fill="#00337a"></path><path d="M0 108C-9.3 100.4 -18.5 92.9 -29 89.4C-39.5 85.9 -51.3 86.6 -59.2 81.5C-67.2 76.5 -71.4 65.9 -79 57.4C-86.5 48.9 -97.3 42.6 -102.7 33.4C-108.1 24.2 -108.1 12.1 -108 0L0 0Z" fill="#003d9e"></path><path d="M0 54C-4.6 50.2 -9.3 46.4 -14.5 44.7C-19.8 43 -25.6 43.3 -29.6 40.8C-33.6 38.3 -35.7 32.9 -39.5 28.7C-43.2 24.4 -48.7 21.3 -51.4 16.7C-54.1 12.1 -54 6 -54 0L0 0Z" fill="#1e40af"></path></g><g transform="translate(0, 300)"><path d="M0 -270C25 -254.7 50 -239.5 74.5 -229.2C98.9 -218.9 122.8 -213.7 148.1 -203.9C173.5 -194.1 200.3 -179.8 218.4 -158.7C236.5 -137.6 245.8 -109.8 253 -82.2C260.1 -54.6 265.1 -27.3 270 0L0 0Z" fill="#001a31"></path><path d="M0 -216C20 -203.8 40 -191.6 59.6 -183.4C79.1 -175.1 98.2 -170.9 118.5 -163.1C138.8 -155.3 160.3 -143.8 174.7 -127C189.2 -110.1 196.7 -87.8 202.4 -65.8C208.1 -43.7 212 -21.8 216 0L0 0Z" fill="#002755"></path><path d="M0 -162C15 -152.8 30 -143.7 44.7 -137.5C59.3 -131.4 73.7 -128.2 88.9 -122.3C104.1 -116.4 120.2 -107.9 131.1 -95.2C141.9 -82.6 147.5 -65.9 151.8 -49.3C156.1 -32.8 159 -16.4 162 0L0 0Z" fill="#00337a"></path><path d="M0 -108C10 -101.9 20 -95.8 29.8 -91.7C39.6 -87.6 49.1 -85.5 59.2 -81.5C69.4 -77.6 80.1 -71.9 87.4 -63.5C94.6 -55.1 98.3 -43.9 101.2 -32.9C104 -21.8 106 -10.9 108 0L0 0Z" fill="#003d9e"></path><path d="M0 -54C5 -50.9 10 -47.9 14.9 -45.8C19.8 -43.8 24.6 -42.7 29.6 -40.8C34.7 -38.8 40.1 -36 43.7 -31.7C47.3 -27.5 49.2 -22 50.6 -16.4C52 -10.9 53 -5.5 54 0L0 0Z" fill="#1e40af"></path></g></svg>