<?xml version="1.0" encoding="UTF-8"?>
<svg version="1.1" xmlns="http://www.w3.org/2000/svg" width="512" height="512">
<path d="M0 0 C2.11241339 1.53355164 3.92242059 3.18153575 5.78515625 5.01171875 C6.64496094 5.80835938 7.50476563 6.605 8.390625 7.42578125 C18.11538404 16.7155222 18.11538404 16.7155222 19.21875 23.79296875 C19.22003906 24.69015625 19.22132813 25.58734375 19.22265625 26.51171875 C19.25166016 27.8575 19.25166016 27.8575 19.28125 29.23046875 C18.24318261 35.05018513 13.87894844 39.16297281 9.80078125 43.19140625 C8.86621094 44.11953125 7.93164062 45.04765625 6.96875 46.00390625 C5.99099532 46.96495558 5.01312937 47.92589171 4.03515625 48.88671875 C3.04120298 49.87062555 2.04770903 50.85499658 1.0546875 51.83984375 C-1.36401802 54.23506669 -3.78727813 56.62548151 -6.21484375 59.01171875 C-5.02640341 61.55455282 -4.01897383 63.22487131 -2.08984375 65.32421875 C-0.21484375 68.01171875 -0.21484375 68.01171875 0.47265625 71.32421875 C-0.36634669 75.82432543 -2.0691846 77.7003968 -5.1953125 80.921875 C-7.69112063 83.5045778 -9.9354678 86.2363128 -12.21484375 89.01171875 C-11.7051001 89.4900415 -11.19535645 89.96836426 -10.67016602 90.46118164 C-8.3567246 92.64945798 -6.06717751 94.8612619 -3.77734375 97.07421875 C-2.97490234 97.82638672 -2.17246094 98.57855469 -1.34570312 99.35351562 C2.13781311 102.74884157 4.48028535 105.07762548 6.0078125 109.7578125 C5.64141443 115.11236673 2.7136483 118.33808257 -1.0078125 122 C-1.72001953 122.70576172 -2.43222656 123.41152344 -3.16601562 124.13867188 C-3.90400391 124.85990234 -4.64199219 125.58113281 -5.40234375 126.32421875 C-6.15193359 127.06478516 -6.90152344 127.80535156 -7.67382812 128.56835938 C-9.51637657 130.38743587 -11.36344037 132.20166264 -13.21484375 134.01171875 C-12.250625 134.07230469 -11.28640625 134.13289062 -10.29296875 134.1953125 C-9.0296875 134.27910156 -7.76640625 134.36289063 -6.46484375 134.44921875 C-5.211875 134.53042969 -3.95890625 134.61164063 -2.66796875 134.6953125 C0.78515625 135.01171875 0.78515625 135.01171875 3.09765625 135.66796875 C3.93296875 135.838125 3.93296875 135.838125 4.78515625 136.01171875 C7.05659699 134.15739788 7.05659699 134.15739788 8.78515625 132.01171875 C13.30341452 133.78674878 15.69626565 136.89636949 17.88562965 141.14956951 C19.0771889 144.94091976 19.06793958 148.56050896 19.05258179 152.49360657 C19.0571129 153.34569661 19.06164401 154.19778665 19.06631243 155.0756976 C19.07896882 157.92983341 19.07733526 160.7837787 19.07568359 163.63793945 C19.08166808 165.68478643 19.08847344 167.73163115 19.09603882 169.7784729 C19.11371447 175.33846607 19.11839487 180.89839768 19.11967039 186.45841622 C19.12156956 191.10051282 19.12892734 195.74259509 19.13601458 200.38468617 C19.15230222 211.33776366 19.1571832 222.29080828 19.15576172 233.24389648 C19.15456029 244.54047786 19.17566166 255.83686818 19.20724905 267.13340122 C19.23340612 276.83376823 19.24412924 286.53407283 19.2428509 296.23447484 C19.24234109 302.02730377 19.24803516 307.81996294 19.269207 313.61275673 C19.28857956 319.06208537 19.28872038 324.51108213 19.27417374 329.96042252 C19.27208331 331.95825498 19.27680042 333.95610816 19.28889465 335.95390511 C19.30436007 338.68595226 19.29503049 341.41685697 19.27963257 344.14888 C19.28991969 344.93537487 19.30020682 345.72186973 19.31080568 346.53219777 C19.23105145 352.95647509 17.24439828 358.03135162 13.14453125 363 C12.6134375 363.43699219 12.08234375 363.87398438 11.53515625 364.32421875 C11.014375 364.77410156 10.49359375 365.22398437 9.95703125 365.6875 C2.12532784 370.46258535 -7.03522155 371.41554344 -15.91479492 372.92260742 C-17.50401598 373.19824734 -19.09311931 373.4745667 -20.68211365 373.75151062 C-24.97814016 374.49817376 -29.2757913 375.23505492 -33.57385039 375.96991515 C-38.07806176 376.74150274 -42.58083994 377.52137004 -47.08381653 378.30012512 C-54.6408154 379.60577077 -62.19884466 380.90530706 -69.75756836 382.20092773 C-78.49416839 383.69849602 -87.22927918 385.20450861 -95.96360034 386.71530741 C-104.37453033 388.170073 -112.78627803 389.62005048 -121.19848061 391.06743813 C-124.77554724 391.68291557 -128.35235724 392.29985445 -131.92897606 392.9179287 C-136.13818744 393.64501094 -140.34810969 394.36782917 -144.55861855 395.08735847 C-146.10321706 395.35198088 -147.64757351 395.61802066 -149.19166565 395.88558197 C-151.29955229 396.25058181 -153.40825967 396.61040401 -155.51725769 396.96891785 C-157.28672398 397.27279561 -157.28672398 397.27279561 -159.09193707 397.58281231 C-161.85466116 397.96225053 -164.43256555 398.09884043 -167.21484375 398.01171875 C-167.36373047 399.29755859 -167.36373047 399.29755859 -167.515625 400.609375 C-170.128481 413.32332795 -179.01947025 422.95364021 -189.2734375 430.15234375 C-203.51518699 439.15509642 -219.44119953 441.37323281 -235.93359375 438.32421875 C-238.8355231 437.40782001 -241.47959136 436.34238208 -244.21484375 435.01171875 C-245.17648438 434.5528125 -246.138125 434.09390625 -247.12890625 433.62109375 C-260.8252716 426.60678266 -270.07413331 415.64297155 -275.21484375 401.01171875 C-275.21484375 400.02171875 -275.21484375 399.03171875 -275.21484375 398.01171875 C-276.13720809 397.94771661 -276.13720809 397.94771661 -277.07820606 397.88242149 C-285.35684568 397.22646651 -293.4832843 395.88663649 -301.65698242 394.46728516 C-303.18249118 394.20564933 -304.70806165 393.94437312 -306.23368835 393.6834259 C-310.34574531 392.9788353 -314.45682217 392.26868195 -318.56766295 391.55703402 C-322.00936026 390.96164467 -325.45148528 390.36874808 -328.89359552 389.77575147 C-337.01499043 388.37646705 -345.13554228 386.97236339 -353.25561523 385.56542969 C-361.61648502 384.11688054 -369.97888288 382.67740879 -378.34205455 381.2422148 C-385.54246977 380.00617722 -392.74181943 378.76406353 -399.94036847 377.51720369 C-404.2311893 376.77408174 -408.52238587 376.03333539 -412.81465721 375.29863358 C-416.84853053 374.60792758 -420.88101818 373.90963113 -424.9125843 373.20558739 C-426.38747498 372.9493231 -427.86282873 372.69570686 -429.33867645 372.44501305 C-448.29684728 369.22058204 -448.29684728 369.22058204 -453.96484375 364.32421875 C-454.4959375 363.88722656 -455.02703125 363.45023437 -455.57421875 363 C-460.36090065 357.19899742 -461.80682067 351.5575834 -461.72277832 344.16906738 C-461.72901828 343.31441407 -461.73525825 342.45976075 -461.7416873 341.57920885 C-461.75755855 338.73416039 -461.7450362 335.88997569 -461.73242188 333.04492188 C-461.7378456 330.99762983 -461.74496966 328.95034169 -461.75366211 326.90306091 C-461.77186847 321.35555606 -461.76483891 315.8083494 -461.75214577 310.26083946 C-461.74200425 304.44964176 -461.75141465 298.63846924 -461.75769043 292.82727051 C-461.76496346 283.06920803 -461.7553881 273.31126673 -461.73632812 263.55322266 C-461.71456013 252.27871314 -461.72161174 241.00449299 -461.74363375 229.72999048 C-461.76179749 220.04228571 -461.76434127 210.35466795 -461.75387907 200.66695166 C-461.74764954 194.88424787 -461.74679376 189.10167999 -461.76002502 183.31898499 C-461.77159698 177.88189745 -461.76353289 172.44518225 -461.740448 167.00813484 C-461.73516814 165.01514872 -461.73666227 163.02213116 -461.74549866 161.02915764 C-461.75646631 158.30380835 -461.74267599 155.57964435 -461.72277832 152.85437012 C-461.73170121 152.06992161 -461.74062409 151.28547311 -461.74981737 150.47725344 C-461.65693668 143.89675537 -459.59979387 138.73331193 -455.25 133.76953125 C-454.59902344 133.23070312 -453.94804687 132.691875 -453.27734375 132.13671875 C-452.62894531 131.58242187 -451.98054688 131.028125 -451.3125 130.45703125 C-446.45664804 127.11128595 -442.18393614 126.74287052 -436.40234375 126.88671875 C-435.70947266 126.89574219 -435.01660156 126.90476562 -434.30273438 126.9140625 C-432.6066198 126.93745718 -430.91068504 126.97332234 -429.21484375 127.01171875 C-429.26125 125.94953125 -429.30765625 124.88734375 -429.35546875 123.79296875 C-429.65362147 114.1298506 -429.3046716 107.87529782 -422.90234375 100.26171875 C-415.60498753 94.15230424 -409.18693373 92.86171445 -399.8125 92.80859375 C-398.99097443 92.80157944 -398.16944885 92.79456512 -397.32302856 92.78733826 C-394.64107841 92.76973628 -391.9593498 92.76347253 -389.27734375 92.76171875 C-387.89852524 92.76070663 -387.89852524 92.76070663 -386.49185181 92.75967407 C-341.6462059 92.81180601 -291.48798858 99.28546319 -250.90234375 119.5859375 C-235.9697554 127.01999688 -220.08859862 129.63951636 -203.70605469 125.02294922 C-197.44298863 122.83114307 -191.45032249 120.16980758 -185.54125977 117.15673828 C-178.77317249 113.82560917 -178.77317249 113.82560917 -175.21484375 115.01171875 C-180.16484375 119.96171875 -180.16484375 119.96171875 -185.21484375 125.01171875 C-162.79414332 119.46452182 -148.78152182 111.537614 -132.85369587 94.64551806 C-130.28753016 91.94750355 -127.66111326 89.30924975 -125.04144287 86.66334534 C-120.12307122 81.67855152 -115.25741676 76.64565884 -110.41062713 71.59134108 C-104.33600593 65.26191714 -98.19334245 58.99971002 -92.05078125 52.73632812 C-85.78505188 46.34359946 -79.52583911 39.94522823 -73.30865479 33.50523376 C-72.83444831 33.01451767 -72.36024184 32.52380158 -71.87166548 32.0182153 C-69.65202238 29.72108925 -67.43504045 27.42151976 -65.22271729 25.11734009 C-64.0719873 23.92531731 -64.0719873 23.92531731 -62.89801025 22.70921326 C-62.23088139 22.01518622 -61.56375252 21.32115919 -60.87640762 20.60610104 C-58.51857943 18.34360631 -57.32611116 18.02699075 -54.02734375 17.57421875 C-48.94801125 18.15709297 -46.69781845 20.45463821 -43.21484375 24.01171875 C-39.37037267 22.43585961 -36.99578615 19.99342067 -34.1171875 17.0390625 C-33.64164932 16.55595108 -33.16611115 16.07283966 -32.67616272 15.5750885 C-31.16329473 14.03787376 -29.65707796 12.49439375 -28.15234375 10.94921875 C-26.16721243 8.91092274 -24.17558557 6.87931058 -22.1796875 4.8515625 C-21.29917725 3.94784912 -20.41866699 3.04413574 -19.51147461 2.11303711 C-14.63380191 -2.34982341 -5.95148252 -2.65559978 0 0 Z M-26.21484375 101.01171875 C-27.20484375 102.49671875 -27.20484375 102.49671875 -28.21484375 104.01171875 C-27.43109375 104.85734375 -26.64734375 105.70296875 -25.83984375 106.57421875 C-23.04553352 109.89097792 -22.13971474 112.80775969 -21.21484375 117.01171875 C-19.23484375 115.36171875 -17.25484375 113.71171875 -15.21484375 112.01171875 C-18.59584755 107.87550791 -21.88074909 104.19855306 -26.21484375 101.01171875 Z " fill="#E5F2FE" transform="translate(477.21484375,36.98828125)"/>
<path d="M0 0 C1.23228836 -0.01052147 1.23228836 -0.01052147 2.48947144 -0.02125549 C5.17142159 -0.03885747 7.8531502 -0.04512122 10.53515625 -0.046875 C11.91397476 -0.04788712 11.91397476 -0.04788712 13.32064819 -0.04891968 C58.1662941 0.00321226 108.32451142 6.47686944 148.91015625 26.77734375 C163.8427446 34.21140313 179.72390138 36.83092261 196.10644531 32.21435547 C202.36951137 30.02254932 208.36217751 27.36121383 214.27124023 24.34814453 C221.03932751 21.01701542 221.03932751 21.01701542 224.59765625 22.203125 C211.72975548 35.24756709 211.72975548 35.24756709 205.375 40.6484375 C201.74637983 43.82248327 198.37644135 47.29530885 195.08984375 50.8203125 C193.59765625 52.203125 193.59765625 52.203125 190.53515625 53.578125 C187.45639959 54.85593423 187.45639959 54.85593423 186.85546875 57.31640625 C184.96442608 61.6564079 181.7867423 64.62788081 178.53515625 68.015625 C177.5596582 69.05493164 177.5596582 69.05493164 176.56445312 70.11523438 C173.07544827 73.80029153 173.07544827 73.80029153 171.59765625 75.203125 C171.26765625 75.203125 170.93765625 75.203125 170.59765625 75.203125 C170.26765625 68.603125 169.93765625 62.003125 169.59765625 55.203125 C124.4778071 32.89929864 74.29361779 17.76119692 23.59765625 17.203125 C22.42412598 17.17879395 21.2505957 17.15446289 20.04150391 17.12939453 C16.10190312 17.04984157 12.16280567 16.99709609 8.22265625 16.953125 C6.96686768 16.93145264 5.7110791 16.90978027 4.41723633 16.88745117 C2.63869263 16.88128784 2.63869263 16.88128784 0.82421875 16.875 C-0.23200684 16.8656543 -1.28823242 16.85630859 -2.37646484 16.84667969 C-5.93897796 17.26633994 -8.33900867 18.36456444 -11.40234375 20.203125 C-12.94539415 23.28922579 -12.55033517 26.53969708 -12.54951477 29.92683411 C-12.55319146 30.73355849 -12.55686815 31.54028288 -12.56065625 32.37145346 C-12.57171875 35.08984576 -12.57554125 37.80819986 -12.5793457 40.52661133 C-12.58560837 42.4695091 -12.59225499 44.41240566 -12.59925842 46.3553009 C-12.61668536 51.64460153 -12.62722459 56.93389311 -12.63546395 62.22321534 C-12.64061004 65.52555325 -12.64668591 68.82788832 -12.65297508 72.13022423 C-12.67203104 82.45601318 -12.68626187 92.78179496 -12.69458705 103.10759813 C-12.70436493 115.03916873 -12.73069721 126.97055408 -12.77108794 138.90205938 C-12.80121394 148.11654058 -12.81605254 157.33096857 -12.81936806 166.54549807 C-12.82172238 172.05268639 -12.8307325 177.55967689 -12.85582924 183.06681252 C-12.87905373 188.24686764 -12.88336585 193.42659392 -12.87306786 198.60668755 C-12.87257103 200.50903032 -12.87893453 202.41138897 -12.8926239 204.31368256 C-12.91025707 206.90900714 -12.90327945 209.50314057 -12.89009094 212.09846497 C-12.90106019 212.85294428 -12.91202943 213.6074236 -12.92333108 214.38476592 C-12.87927131 217.97097222 -12.48091916 220.07341417 -10.60769939 223.16569042 C-7.39043873 226.13798114 -4.20008008 225.97892319 -0.02734375 226.0234375 C0.80142776 226.05246155 1.63019928 226.0814856 2.48408508 226.11138916 C4.26329616 226.17196774 6.04288688 226.22212219 7.82266235 226.26287842 C12.4930654 226.37269049 17.16016042 226.56592268 21.828125 226.75 C22.75626511 226.78471405 23.68440521 226.8194281 24.64067078 226.85519409 C42.73726015 227.56152841 60.5693883 229.7845563 78.24853516 233.70019531 C80.62311581 234.20857571 83.00224018 234.66290922 85.390625 235.1015625 C104.87883429 238.70426036 123.68696577 244.40748015 142.41015625 250.828125 C143.0817981 251.0578299 143.75343994 251.28753479 144.44543457 251.52420044 C146.4004637 252.19556308 148.3530072 252.87365686 150.3046875 253.5546875 C151.42335205 253.94479004 152.5420166 254.33489258 153.69458008 254.73681641 C159.05150593 256.7493076 164.31536718 259.00217122 169.59765625 261.203125 C169.92765625 233.813125 170.25765625 206.423125 170.59765625 178.203125 C183.59765625 174.203125 183.59765625 174.203125 186.59765625 174.203125 C186.59765625 202.913125 186.59765625 231.623125 186.59765625 261.203125 C200.95265625 255.758125 200.95265625 255.758125 215.59765625 250.203125 C256.37294849 236.45864447 299.92410813 226.65146967 343.1328125 226.0625 C344.99389648 226.03349609 344.99389648 226.03349609 346.89257812 226.00390625 C349.43928704 225.96958047 351.98626418 225.95178752 354.53320312 225.94921875 C355.76232422 225.92472656 356.99144531 225.90023437 358.2578125 225.875 C359.35746338 225.8656543 360.45711426 225.85630859 361.59008789 225.84667969 C364.64186212 225.1936659 366.40043587 224.43481082 368.54650593 222.14938164 C371.0997433 217.42193678 370.29236107 211.47555583 370.25708008 206.2331543 C370.26553595 204.79399732 370.27618129 203.35485178 370.28884888 201.91572571 C370.31698872 198.01516004 370.31452497 194.11514441 370.30655503 190.21450782 C370.30342965 186.13582739 370.32846519 182.05732205 370.35050964 177.97871399 C370.38796158 170.25816821 370.4000983 162.53779857 370.40313405 154.81717092 C370.40782364 146.02632719 370.44074373 137.23566005 370.4760319 128.44489419 C370.5479792 110.36432147 370.58448521 92.28383126 370.59765625 74.203125 C371.16613281 73.91179687 371.73460937 73.62046875 372.3203125 73.3203125 C377.71086744 70.45854877 382.09521063 67.32238376 386.59765625 63.203125 C386.7145996 83.89175758 386.8026983 104.58033544 386.85671711 125.2692318 C386.88246874 134.87605227 386.91756096 144.48266705 386.97485352 154.08935547 C387.02478177 162.4652275 387.05696937 170.84095051 387.06809872 179.21696723 C387.07460158 183.64965813 387.0898212 188.08192284 387.12630653 192.51447678 C387.16041525 196.6924146 387.17067949 200.86975339 387.16319466 205.04781723 C387.1645626 206.57557946 387.17440654 208.10336312 387.19368362 209.63100433 C387.30979286 219.31266309 386.70317839 227.67450355 379.84206104 235.10420799 C373.42354535 241.19380135 366.71465435 242.6366361 358.16015625 242.79296875 C356.29263326 242.85279834 354.42512061 242.91295128 352.55761719 242.97338867 C351.58530151 243.0000058 350.61298584 243.02662292 349.61120605 243.05404663 C293.1322566 244.67666967 239.75891045 257.5968267 187.59765625 279.203125 C187.26765625 284.813125 186.93765625 290.423125 186.59765625 296.203125 C189.35882813 295.70683594 192.12 295.21054687 194.96484375 294.69921875 C214.28309892 291.23604405 233.6071223 287.82981752 252.97265625 284.640625 C266.24317053 282.45486048 279.49051275 280.17276523 292.72265625 277.765625 C307.41029705 275.09480172 322.12021057 272.58215783 336.84765625 270.140625 C338.88469634 269.80199331 340.92172442 269.46328942 342.95874023 269.12451172 C351.53262408 267.69992528 360.10724811 266.28067322 368.68618774 264.88682556 C371.9608079 264.35284003 375.23403496 263.81066872 378.50695801 263.26638794 C380.00738012 263.01891034 381.50843274 262.77522099 383.01013184 262.53561401 C385.05533525 262.20907162 387.09802796 261.86975568 389.140625 261.52734375 C390.84255005 261.2502356 390.84255005 261.2502356 392.57885742 260.9675293 C395.74580874 260.16561061 397.9467791 259.09677998 400.59765625 257.203125 C402.15017178 254.09809395 401.74193857 250.81164729 401.73809814 247.40348816 C401.74106927 246.58859667 401.74404039 245.77370517 401.74710155 244.93412 C401.75581234 242.18808473 401.7572988 239.44209293 401.75878906 236.69604492 C401.76341556 234.73344326 401.76843999 232.7708425 401.77383423 230.8082428 C401.78697661 225.46522105 401.79340678 220.12221187 401.79784489 214.77917647 C401.8007727 211.4433365 401.80487695 208.10749999 401.80934906 204.77166176 C401.82302893 194.34121916 401.83269315 183.91078445 401.83655095 173.48033351 C401.84103283 161.42767606 401.85858474 149.37513196 401.88755155 137.32250899 C401.90914754 128.01460956 401.91925412 118.70674206 401.92059207 109.39881784 C401.92164161 103.83577741 401.92758097 98.27284345 401.94541168 92.70982933 C401.96185632 87.47728456 401.96406542 82.2449267 401.95527267 77.01236534 C401.95450036 75.0906779 401.95887053 73.16898056 401.96873093 71.24731827 C401.98139415 68.6258922 401.9756044 66.00513377 401.96514893 63.38371277 C401.97320533 62.62145156 401.98126173 61.85919034 401.98956227 61.07383031 C401.9434159 56.13415444 401.30565711 54.71645976 398.59765625 50.203125 C403.54765625 44.758125 403.54765625 44.758125 408.59765625 39.203125 C413.19541823 41.50200599 415.35779263 43.79448579 417.69812965 48.34097576 C418.8896889 52.13232601 418.88043958 55.75191521 418.86508179 59.68501282 C418.8696129 60.53710286 418.87414401 61.3891929 418.87881243 62.26710385 C418.89146882 65.12123966 418.88983526 67.97518495 418.88818359 70.8293457 C418.89416808 72.87619268 418.90097344 74.9230374 418.90853882 76.96987915 C418.92621447 82.52987232 418.93089487 88.08980393 418.93217039 93.64982247 C418.93406956 98.29191907 418.94142734 102.93400134 418.94851458 107.57609242 C418.96480222 118.52916991 418.9696832 129.48221453 418.96826172 140.43530273 C418.96706029 151.73188411 418.98816166 163.02827443 419.01974905 174.32480747 C419.04590612 184.02517448 419.05662924 193.72547908 419.0553509 203.42588109 C419.05484109 209.21871002 419.06053516 215.01136919 419.081707 220.80416298 C419.10107956 226.25349162 419.10122038 231.70248838 419.08667374 237.15182877 C419.08458331 239.14966123 419.08930042 241.14751441 419.10139465 243.14531136 C419.11686007 245.87735851 419.10753049 248.60826322 419.09213257 251.34028625 C419.10241969 252.12678112 419.11270682 252.91327598 419.12330568 253.72360402 C419.04355145 260.14788134 417.05689828 265.22275787 412.95703125 270.19140625 C412.4259375 270.62839844 411.89484375 271.06539063 411.34765625 271.515625 C410.826875 271.96550781 410.30609375 272.41539062 409.76953125 272.87890625 C401.93782784 277.6539916 392.77727845 278.60694969 383.89770508 280.11401367 C382.30848402 280.38965359 380.71938069 280.66597295 379.13038635 280.94291687 C374.83435984 281.68958001 370.5367087 282.42646117 366.23864961 283.1613214 C361.73443824 283.93290899 357.23166006 284.71277629 352.72868347 285.49153137 C345.1716846 286.79717702 337.61365534 288.09671331 330.05493164 289.39233398 C321.31833161 290.88990227 312.58322082 292.39591486 303.84889966 293.90671366 C295.43796967 295.36147925 287.02622197 296.81145673 278.61401939 298.25884438 C275.03695276 298.87432182 271.46014276 299.4912607 267.88352394 300.10933495 C263.67431256 300.83641719 259.46439031 301.55923542 255.25388145 302.27876472 C253.70928294 302.54338713 252.16492649 302.80942691 250.62083435 303.07698822 C248.51294771 303.44198806 246.40424033 303.80181026 244.29524231 304.1603241 C242.52577602 304.46420186 242.52577602 304.46420186 240.72056293 304.77421856 C237.95783884 305.15365678 235.37993445 305.29024668 232.59765625 305.203125 C232.44876953 306.48896484 232.44876953 306.48896484 232.296875 307.80078125 C229.684019 320.5147342 220.79302975 330.14504646 210.5390625 337.34375 C196.29731301 346.34650267 180.37130047 348.56463906 163.87890625 345.515625 C160.9769769 344.59922626 158.33290864 343.53378833 155.59765625 342.203125 C154.63601562 341.74421875 153.674375 341.2853125 152.68359375 340.8125 C138.9872284 333.79818891 129.73836669 322.8343778 124.59765625 308.203125 C124.59765625 307.213125 124.59765625 306.223125 124.59765625 305.203125 C123.67529191 305.13912286 123.67529191 305.13912286 122.73429394 305.07382774 C114.45565432 304.41787276 106.3292157 303.07804274 98.15551758 301.65869141 C96.63000882 301.39705558 95.10443835 301.13577937 93.57881165 300.87483215 C89.46675469 300.17024155 85.35567783 299.4600882 81.24483705 298.74844027 C77.80313974 298.15305092 74.36101472 297.56015433 70.91890448 296.96715772 C62.79750957 295.5678733 54.67695772 294.16376964 46.55688477 292.75683594 C38.19601498 291.30828679 29.83361712 289.86881504 21.47044545 288.43362105 C14.27003023 287.19758347 7.07068057 285.95546978 -0.12786847 284.70860994 C-4.4186893 283.96548799 -8.70988587 283.22474164 -13.00215721 282.49003983 C-17.03603053 281.79933383 -21.06851818 281.10103738 -25.1000843 280.39699364 C-26.57497498 280.14072935 -28.05032873 279.88711311 -29.52617645 279.6364193 C-48.48434728 276.41198829 -48.48434728 276.41198829 -54.15234375 271.515625 C-54.6834375 271.07863281 -55.21453125 270.64164062 -55.76171875 270.19140625 C-60.54840065 264.39040367 -61.99432067 258.74898965 -61.91027832 251.36047363 C-61.91651828 250.50582032 -61.92275825 249.651167 -61.9291873 248.7706151 C-61.94505855 245.92556664 -61.9325362 243.08138194 -61.91992188 240.23632812 C-61.9253456 238.18903608 -61.93246966 236.14174794 -61.94116211 234.09446716 C-61.95936847 228.54696231 -61.95233891 222.99975565 -61.93964577 217.45224571 C-61.92950425 211.64104801 -61.93891465 205.82987549 -61.94519043 200.01867676 C-61.95246346 190.26061428 -61.9428881 180.50267298 -61.92382812 170.74462891 C-61.90206013 159.47011939 -61.90911174 148.19589924 -61.93113375 136.92139673 C-61.94929749 127.23369196 -61.95184127 117.5460742 -61.94137907 107.85835791 C-61.93514954 102.07565412 -61.93429376 96.29308624 -61.94752502 90.51039124 C-61.95909698 85.0733037 -61.95103289 79.6365885 -61.927948 74.19954109 C-61.92266814 72.20655497 -61.92416227 70.21353741 -61.93299866 68.22056389 C-61.94396631 65.4952146 -61.93017599 62.7710506 -61.91027832 60.04577637 C-61.91920121 59.26132786 -61.92812409 58.47687936 -61.93731737 57.66865969 C-61.84443668 51.08816162 -59.78729387 45.92471818 -55.4375 40.9609375 C-54.78652344 40.42210937 -54.13554688 39.88328125 -53.46484375 39.328125 C-52.49224609 38.49667969 -52.49224609 38.49667969 -51.5 37.6484375 C-46.64414804 34.3026922 -42.37143614 33.93427677 -36.58984375 34.078125 C-35.55053711 34.09166016 -35.55053711 34.09166016 -34.49023438 34.10546875 C-32.7941198 34.12886343 -31.09818504 34.16472859 -29.40234375 34.203125 C-29.44875 33.1409375 -29.49515625 32.07875 -29.54296875 30.984375 C-29.84112147 21.32125685 -29.4921716 15.06670407 -23.08984375 7.453125 C-15.79248753 1.34371049 -9.37443373 0.0531207 0 0 Z " fill="#21267C" transform="translate(77.40234375,129.796875)"/>
<path d="M0 0 C2.11241339 1.53355164 3.92242059 3.18153575 5.78515625 5.01171875 C6.64496094 5.80835938 7.50476563 6.605 8.390625 7.42578125 C18.11538404 16.7155222 18.11538404 16.7155222 19.21875 23.79296875 C19.22003906 24.69015625 19.22132813 25.58734375 19.22265625 26.51171875 C19.25166016 27.8575 19.25166016 27.8575 19.28125 29.23046875 C18.24318261 35.05018513 13.87894844 39.16297281 9.80078125 43.19140625 C8.86621094 44.11953125 7.93164062 45.04765625 6.96875 46.00390625 C5.99099532 46.96495558 5.01312937 47.92589171 4.03515625 48.88671875 C3.04120298 49.87062555 2.04770903 50.85499658 1.0546875 51.83984375 C-1.36401802 54.23506669 -3.78727813 56.62548151 -6.21484375 59.01171875 C-5.02640341 61.55455282 -4.01897383 63.22487131 -2.08984375 65.32421875 C-0.21484375 68.01171875 -0.21484375 68.01171875 0.47265625 71.32421875 C-0.36634669 75.82432543 -2.0691846 77.7003968 -5.1953125 80.921875 C-7.69112063 83.5045778 -9.9354678 86.2363128 -12.21484375 89.01171875 C-11.7051001 89.4900415 -11.19535645 89.96836426 -10.67016602 90.46118164 C-8.3567246 92.64945798 -6.06717751 94.8612619 -3.77734375 97.07421875 C-2.97490234 97.82638672 -2.17246094 98.57855469 -1.34570312 99.35351562 C2.13781311 102.74884157 4.48028535 105.07762548 6.0078125 109.7578125 C5.64359047 115.08056599 2.73793084 118.31285549 -0.9453125 121.97265625 C-1.66654297 122.69195312 -2.38777344 123.41125 -3.13085938 124.15234375 C-3.88044922 124.8896875 -4.63003906 125.62703125 -5.40234375 126.38671875 C-6.49772461 127.48113281 -6.49772461 127.48113281 -7.61523438 128.59765625 C-11.76111561 132.71048795 -16.01343193 136.63595605 -20.43579102 140.44873047 C-22.76230641 142.49269253 -24.93158506 144.66701498 -27.08984375 146.88671875 C-31.90609278 151.83721862 -31.90609278 151.83721862 -36.02734375 152.38671875 C-39.21484375 152.01171875 -39.21484375 152.01171875 -42.08984375 149.88671875 C-44.63325857 146.44562811 -44.77527279 145.1976876 -44.21484375 141.01171875 C-42.29052734 138.43798828 -42.29052734 138.43798828 -39.61328125 135.89453125 C-38.90215683 135.20325638 -38.90215683 135.20325638 -38.17666626 134.49801636 C-36.66130947 133.02930313 -35.12719681 131.58236158 -33.58984375 130.13671875 C-27.26373157 124.10673109 -21.2138064 118.22865117 -16.21484375 111.01171875 C-19.18484375 108.04171875 -22.15484375 105.07171875 -25.21484375 102.01171875 C-32.94036033 107.35867364 -39.34298968 113.87854628 -45.93310547 120.51879883 C-47.20152161 121.78941915 -48.47038873 123.05958941 -49.7396698 124.3293457 C-52.45932577 127.05192261 -55.17580983 129.7776107 -57.88982773 132.50580788 C-62.17896116 136.8172831 -66.47524129 141.1215894 -70.77249146 145.42497253 C-77.56289701 152.22673396 -84.34860701 159.03315755 -91.13226712 165.8416459 C-103.29825087 178.05207027 -115.4699383 190.25680309 -127.64677823 202.45640105 C-131.92061738 206.73866054 -136.19163225 211.02371176 -140.4604156 215.31101096 C-143.10849908 217.96970771 -145.75858784 220.62639886 -148.40918922 223.28258514 C-149.64123866 224.51811583 -150.87241502 225.75451782 -152.10267067 226.99183464 C-153.77644822 228.67501049 -155.4532396 230.35512462 -157.13082886 232.03450012 C-157.86680339 232.77689028 -157.86680339 232.77689028 -158.6176461 233.53427821 C-162.99654656 237.90577986 -162.99654656 237.90577986 -167.08984375 238.26171875 C-170.21484375 238.01171875 -170.21484375 238.01171875 -172.15087891 236.44140625 C-174.06593809 234.80052363 -174.06593809 234.80052363 -176.17333984 235.12890625 C-176.89602051 235.37898437 -177.61870117 235.6290625 -178.36328125 235.88671875 C-179.68150879 236.33917969 -179.68150879 236.33917969 -181.02636719 236.80078125 C-188.00081452 239.44957595 -194.9277741 242.2044961 -201.83984375 245.01171875 C-204.18643243 245.96042209 -206.53352606 246.90785985 -208.88095093 247.85449219 C-210.33078309 248.43961336 -211.78006514 249.02610033 -213.22866821 249.61425781 C-228.52895961 255.80866667 -228.52895961 255.80866667 -232.21484375 255.01171875 C-235.08984375 253.07421875 -235.08984375 253.07421875 -237.21484375 250.01171875 C-237.74514358 242.92442566 -234.62880776 236.3743612 -231.890625 230.02734375 C-231.01861503 227.93761064 -230.1468782 225.84776353 -229.27539062 223.7578125 C-227.89818919 220.49444924 -226.51536249 217.23360446 -225.12670898 213.97509766 C-223.78329509 210.81097008 -222.46101165 207.63863478 -221.140625 204.46484375 C-220.71783768 203.49081604 -220.29505035 202.51678833 -219.85945129 201.51324463 C-219.48213364 200.60169617 -219.10481598 199.69014771 -218.71606445 198.75097656 C-218.20762749 197.55592499 -218.20762749 197.55592499 -217.68891907 196.33673096 C-217.06706036 193.28694324 -217.88379624 191.77747993 -219.21484375 189.01171875 C-220.27734375 185.69921875 -220.27734375 185.69921875 -220.21484375 182.01171875 C-215.51437599 174.8363173 -208.21404871 168.89307202 -202.13252258 162.85423279 C-200.27092343 161.00556 -198.41260871 159.15363914 -196.55505371 157.30090332 C-191.94379462 152.70291467 -187.32707227 148.11042436 -182.71051025 143.51776123 C-178.79828393 139.625363 -174.88817945 135.73085596 -170.98078918 131.83360291 C-169.16223084 130.0214607 -167.34065579 128.21239032 -165.5189209 126.40344238 C-164.38941703 125.27757563 -163.26005589 124.15156564 -162.13085938 123.02539062 C-161.3856176 122.28789833 -161.3856176 122.28789833 -160.62532043 121.5355072 C-157.93782475 118.84840695 -155.38981935 116.08773904 -152.90913391 113.20799255 C-148.87179243 108.55169438 -144.55190382 104.20852779 -140.19018555 99.85766602 C-139.3145546 98.98028275 -138.43892365 98.10289948 -137.53675842 97.19892883 C-135.15881526 94.81736453 -132.77867798 92.4380384 -130.397331 90.0598805 C-127.89837601 87.56347456 -125.40188122 85.06461017 -122.90498352 82.56614685 C-118.71994435 78.37929541 -114.53281637 74.19454164 -110.34448242 70.01098633 C-105.50109183 65.17305792 -100.66134288 60.33150885 -95.82342786 55.48810536 C-91.66122185 51.32136676 -87.49707721 47.15657311 -83.33129436 42.99341053 C-80.84648549 40.51016088 -78.3623579 38.02623984 -75.87998009 35.54055977 C-73.12035031 32.77751423 -70.35666001 30.01855297 -67.5925293 27.26000977 C-66.7691507 26.43460693 -65.94577209 25.6092041 -65.09744263 24.75878906 C-63.97258202 23.63815819 -63.97258202 23.63815819 -62.82499695 22.49488831 C-62.17224132 21.8425097 -61.51948568 21.19013109 -60.84694958 20.51798344 C-58.49369653 18.34617454 -57.26444644 18.01852696 -54.02734375 17.57421875 C-48.94801125 18.15709297 -46.69781845 20.45463821 -43.21484375 24.01171875 C-39.37037267 22.43585961 -36.99578615 19.99342067 -34.1171875 17.0390625 C-33.64164932 16.55595108 -33.16611115 16.07283966 -32.67616272 15.5750885 C-31.16329473 14.03787376 -29.65707796 12.49439375 -28.15234375 10.94921875 C-26.16721243 8.91092274 -24.17558557 6.87931058 -22.1796875 4.8515625 C-21.29917725 3.94784912 -20.41866699 3.04413574 -19.51147461 2.11303711 C-14.63380191 -2.34982341 -5.95148252 -2.65559978 0 0 Z " fill="#22267D" transform="translate(477.21484375,36.98828125)"/>
<path d="M0 0 C0.70964401 -0.00511093 1.41928802 -0.01022186 2.1504364 -0.01548767 C4.48734059 -0.02934277 6.82394838 -0.02842963 9.16088867 -0.02612305 C10.79367684 -0.03001301 12.42646401 -0.0343483 14.05924988 -0.03910828 C17.47963746 -0.04656229 20.89992181 -0.04628574 24.3203125 -0.04101562 C28.68809404 -0.03523048 33.05545022 -0.05213264 37.42316151 -0.0753603 C40.7956537 -0.0901466 44.16804471 -0.09096256 47.54056358 -0.08785057 C49.14999927 -0.0883616 50.75944094 -0.09355814 52.36884499 -0.10366249 C71.47381813 -0.2088692 71.47381813 -0.2088692 79.01635742 6.4621582 C79.64026367 6.99196289 80.26416992 7.52176758 80.90698242 8.06762695 C87.13494435 15.46006076 87.37074694 22.2838339 87.33276367 31.6105957 C87.33896225 32.88512604 87.34516083 34.15965637 87.35154724 35.47280884 C87.35863215 38.16122809 87.35745841 40.84814096 87.34277344 43.53637695 C87.32561358 46.95484494 87.34906587 50.37162743 87.38426304 53.78990746 C87.41170818 57.08432095 87.40148892 60.37860032 87.39526367 63.6730957 C87.40852188 64.88693939 87.42178009 66.10078308 87.43544006 67.35140991 C87.343554 75.81666732 85.85000418 82.75639813 80.04029846 89.18441772 C71.5451025 97.36527943 61.07477174 96.7352951 50.07885742 96.70825195 C48.45035587 96.71281978 46.82185624 96.71812713 45.19335938 96.72413635 C41.79085425 96.73304028 38.3885842 96.73067489 34.98608398 96.72070312 C30.6417887 96.70920705 26.29830551 96.72944804 21.95411682 96.75862026 C18.59447136 96.77702861 15.23501897 96.7766808 11.87533569 96.77098274 C10.27427022 96.77083015 8.67319114 96.77682317 7.07217407 96.78927422 C-2.58928029 96.8538459 -10.03161035 96.81611491 -17.69458008 90.1262207 C-18.3262207 89.39145508 -18.95786133 88.65668945 -19.60864258 87.8996582 C-20.25575195 87.17004883 -20.90286133 86.44043945 -21.56958008 85.6887207 C-24.68101445 81.17494971 -25.48338731 76.711076 -25.52416992 71.30444336 C-25.53692963 70.14949371 -25.54968933 68.99454407 -25.56283569 67.80459595 C-25.56506134 66.57010712 -25.56728699 65.33561829 -25.56958008 64.0637207 C-25.57623688 62.78161713 -25.58289368 61.49951355 -25.5897522 60.17855835 C-25.60169063 57.47032299 -25.60543656 54.76221487 -25.60424805 52.05395508 C-25.60404498 48.60188707 -25.63134846 45.15064342 -25.66579247 41.69877052 C-25.6935189 38.38290969 -25.69221336 35.06719575 -25.69458008 31.7512207 C-25.70895111 30.52078033 -25.72332214 29.29033997 -25.73812866 28.02261353 C-25.69410234 19.71388846 -24.71350343 14.19650496 -19.05004883 7.8137207 C-17.93436523 6.86625977 -17.93436523 6.86625977 -16.79614258 5.8996582 C-16.05493164 5.25254883 -15.3137207 4.60543945 -14.55004883 3.9387207 C-9.79742943 0.52452869 -5.79913166 0.02088441 0 0 Z " fill="#4AA5FF" transform="translate(105.233642578125,171.725341796875)"/>
<path d="M0 0 C2.92603371 1.40627078 5.00756645 2.76172683 7.29980469 5.07275391 C8.23031647 6.00349228 8.23031647 6.00349228 9.17962646 6.95303345 C9.83706848 7.62079803 10.4945105 8.28856262 11.171875 8.9765625 C12.1955014 10.00443375 12.1955014 10.00443375 13.23980713 11.05307007 C15.41461598 13.23905845 17.58236072 15.43190429 19.75 17.625 C21.2247999 19.10983255 22.70005506 20.59421306 24.17578125 22.078125 C27.78915448 25.7135291 31.39620853 29.35509824 35 33 C31.16563841 37.58194928 27.19917489 41.94447958 22.96353149 46.15672302 C22.38670761 46.73440133 21.80988374 47.31207963 21.21558034 47.90726334 C19.30184371 49.8226337 17.38457988 51.73443206 15.46728516 53.64624023 C14.08689242 55.02635062 12.7067204 56.4066818 11.32675171 57.78721619 C7.59392434 61.52032965 3.85802882 65.2503588 0.12156343 68.9798305 C-3.78799049 72.88311961 -7.69469971 76.78925384 -11.60171509 80.69508362 C-18.99436483 88.08462926 -26.38955928 95.47162275 -33.78567755 102.85769659 C-42.20843304 111.26926232 -50.62833835 119.68367859 -59.04800868 128.09833229 C-76.36217567 145.40205575 -93.6799084 162.70220689 -111 180 C-113.8513876 178.62492304 -115.9576188 177.30303034 -118.22387695 175.08251953 C-118.82742508 174.4949588 -119.43097321 173.90739807 -120.05281067 173.30203247 C-121.01086861 172.35201859 -121.01086861 172.35201859 -121.98828125 171.3828125 C-122.65087448 170.72924774 -123.31346771 170.07568298 -123.99613953 169.40231323 C-125.39150009 168.02143652 -126.78408609 166.63775126 -128.17407227 165.25146484 C-130.31009554 163.127391 -132.46405887 161.02268091 -134.61914062 158.91796875 C-135.97249898 157.57406856 -137.32475167 156.2290538 -138.67578125 154.8828125 C-139.3246077 154.25351837 -139.97343414 153.62422424 -140.641922 152.9758606 C-141.22970932 152.38199554 -141.81749664 151.78813049 -142.4230957 151.17626953 C-143.20774956 150.39922165 -143.20774956 150.39922165 -144.008255 149.60647583 C-145 148 -145 148 -144.91117477 146.27133369 C-143.53607194 142.84354192 -141.00075155 140.59941707 -138.41294861 138.05218506 C-137.82406264 137.46073582 -137.23517668 136.86928658 -136.62844568 136.25991464 C-134.64860429 134.27512237 -132.65821283 132.30125894 -130.66772461 130.32714844 C-129.24823174 128.90850155 -127.82939868 127.48919419 -126.41117859 126.0692749 C-122.55441424 122.21164808 -118.68845487 118.36335556 -114.82081676 114.51663494 C-110.78222667 110.49676947 -106.75210273 106.46843483 -102.72108459 102.440979 C-95.08434504 94.8135723 -87.43998873 87.19384662 -79.79288727 79.57683015 C-71.08821738 70.90566563 -62.39204119 62.22600438 -53.69657886 53.54560804 C-35.80717465 35.68758095 -17.90709522 17.84028618 0 0 Z " fill="#49A3FD" transform="translate(422,75)"/>
<path d="M0 0 C0.763125 0.00580078 1.52625 0.01160156 2.3125 0.01757812 C6.14578627 0.10164142 8.12608101 0.27155401 11.375 2.4375 C10.17118552 4.93111571 8.92071278 7.11893083 7.375 9.4375 C8.10550615 10.17875799 8.10550615 10.17875799 8.85077 10.93499088 C10.95415843 14.38837306 10.79358097 17.5539914 10.76268005 21.47764587 C10.77075836 22.70254639 10.77075836 22.70254639 10.77899987 23.95219237 C10.79332273 26.69215789 10.78616512 29.43164325 10.77905273 32.17163086 C10.78475404 34.13453053 10.79171737 36.09742689 10.79985046 38.06031799 C10.81782346 43.3950051 10.8166057 48.72952809 10.81090808 54.0642364 C10.8078222 58.51520082 10.81390198 62.96613344 10.81994683 67.41709334 C10.83400406 77.91602847 10.8324208 88.41488226 10.82104492 98.91381836 C10.80956224 109.75090999 10.82363926 120.58775419 10.8504414 131.42481321 C10.87258103 140.72427584 10.8792397 150.02366071 10.87336498 159.32314783 C10.86999008 164.87946753 10.87244587 170.43562861 10.88961601 175.99192619 C10.90505535 181.21636023 10.90116301 186.44042705 10.88231087 191.66484642 C10.87861664 193.58330463 10.88175763 195.50178987 10.89219666 197.42022324 C10.90535139 200.03736522 10.89390859 202.65328167 10.87620544 205.27037048 C10.89061295 206.41171594 10.89061295 206.41171594 10.90531152 207.57611889 C10.85470923 211.20679369 10.47255736 213.2821925 8.52372837 216.38465214 C5.74175168 219.04249153 3.81532409 219.39775165 0.03125 220.015625 C-0.93923279 220.18327362 -0.93923279 220.18327362 -1.92932129 220.35430908 C-3.37253098 220.60051551 -4.81745968 220.83678915 -6.26367188 221.06469727 C-8.75235236 221.45760619 -11.23535632 221.87773499 -13.71875 222.30273438 C-18.48836712 223.11406211 -23.26169021 223.90100881 -28.03637695 224.68188477 C-44.08911491 227.30975769 -60.12242357 230.01960095 -76.125 232.9375 C-90.60311244 235.57572375 -105.10490769 238.0414096 -119.625 240.4375 C-137.08879337 243.31983986 -154.52355717 246.33176554 -171.93814087 249.49777222 C-173.37586131 249.75908275 -174.81366455 250.01993824 -176.2515564 250.28030396 C-179.92980742 250.94634594 -183.60655565 251.61946235 -187.28173828 252.30224609 C-188.8036776 252.58058598 -190.32564923 252.85874929 -191.84765625 253.13671875 C-192.54064316 253.26754349 -193.23363007 253.39836823 -193.94761658 253.53315735 C-197.99553566 254.26570888 -201.44050648 254.4375 -205.625 254.4375 C-205.625 248.8275 -205.625 243.2175 -205.625 237.4375 C-196.94431058 233.31267586 -188.3199936 229.68368208 -179.25 226.5 C-178.03103027 226.07033936 -176.81206055 225.64067871 -175.55615234 225.19799805 C-149.66559745 216.15639628 -123.1587627 208.45872742 -95.87182617 205.11083984 C-92.52842745 204.69480637 -89.20201634 204.22706075 -85.87597656 203.68994141 C-71.73213793 201.43344952 -57.75680197 200.78279552 -43.4519043 200.50439453 C-27.0896357 200.55081591 -27.0896357 200.55081591 -13.04638672 193.03222656 C-8.15075626 187.73727591 -6.24746585 181.63106809 -6.26423645 174.5594635 C-6.26167318 173.9041977 -6.2591099 173.2489319 -6.25646895 172.57380956 C-6.25156313 170.39798844 -6.26796964 168.22287535 -6.28442383 166.04711914 C-6.2852708 164.47960425 -6.28479359 162.91208817 -6.28309631 161.34457397 C-6.28223766 157.10328313 -6.29984221 152.86224825 -6.32081819 148.62101674 C-6.33960678 144.18342855 -6.34133715 139.74583411 -6.34489441 135.30821228 C-6.35420847 126.91126313 -6.37881359 118.51443155 -6.40894288 110.1175341 C-6.44250679 100.55529702 -6.4589779 90.99305425 -6.47402918 81.4307729 C-6.50536372 61.76628306 -6.55811178 42.10189894 -6.625 22.4375 C-10.09 25.4075 -10.09 25.4075 -13.625 28.4375 C-13.77060195 24.70874612 -13.85917043 20.98072566 -13.9375 17.25 C-14.0003418 15.66735352 -14.0003418 15.66735352 -14.06445312 14.05273438 C-14.13955169 9.29148515 -14.18290664 6.34203503 -11.64453125 2.2265625 C-7.60771324 -0.16523912 -4.60155009 -0.2002381 0 0 Z " fill="#49A4FE" transform="translate(469.625,171.5625)"/>
<path d="M0 0 C1.46373047 0.06767578 1.46373047 0.06767578 2.95703125 0.13671875 C3.69308594 0.19472656 4.42914063 0.25273437 5.1875 0.3125 C5.18896656 1.18972403 5.19043312 2.06694805 5.19194412 2.97075462 C5.22903263 24.33807332 5.28807455 45.70523365 5.37140274 67.07242393 C5.41117337 77.40554431 5.44357592 87.73858874 5.45849609 98.07177734 C5.47152283 107.08058763 5.49851364 116.08923067 5.54211307 125.09794676 C5.56470483 129.86584735 5.58041205 134.63354185 5.57938385 139.4015007 C5.57863589 143.89464977 5.59664113 148.38734366 5.62866783 152.88037491 C5.6371456 154.52418693 5.63893125 156.16805014 5.63330269 157.81187439 C5.45706103 171.97614935 5.45706103 171.97614935 11.87872696 184.20928001 C19.70252308 191.64435032 27.80010822 191.75216973 38.125 191.875 C40.85181817 191.93619116 43.57822042 192.01085926 46.3046875 192.0859375 C47.32324577 192.11257729 47.32324577 192.11257729 48.36238098 192.13975525 C84.19504467 193.10822025 123.20577252 198.87299922 156.984375 211.171875 C159.53657039 212.08070555 162.05582656 212.86243351 164.65625 213.609375 C170.88496205 215.45483268 176.93774982 217.75610233 183.00244141 220.07373047 C184.94637724 220.81588916 186.89293011 221.5508498 188.83984375 222.28515625 C190.09651555 222.76259628 191.35303161 223.24044647 192.609375 223.71875 C193.72924805 224.14478516 194.84912109 224.57082031 196.00292969 225.00976562 C199.13205811 226.28982 202.16359737 227.80054869 205.1875 229.3125 C205.1875 234.9225 205.1875 240.5325 205.1875 246.3125 C194.71973721 245.76280503 184.67079102 244.119267 174.37738037 242.21844482 C169.38832002 241.29784503 164.39517779 240.39986837 159.40234375 239.5 C158.38227234 239.31569427 157.36220093 239.13138855 156.31121826 238.9414978 C146.07663804 237.09875437 135.82276386 235.38040048 125.5625 233.6875 C123.81053215 233.39771272 122.05857897 233.1078367 120.30664062 232.81787109 C119.44823578 232.67580231 118.58983093 232.53373352 117.70541382 232.38735962 C116.85516632 232.24664032 116.00491882 232.10592102 115.12890625 231.9609375 C114.28824615 231.8219101 113.44758606 231.68288269 112.58145142 231.53964233 C104.21680358 230.15493924 95.85688584 228.74327219 87.5 227.3125 C86.79573883 227.19195251 86.09147766 227.07140503 85.36587524 226.94720459 C77.10736954 225.53093392 68.85542935 224.08082621 60.609375 222.59375 C59.7993251 222.44770828 58.98927521 222.30166656 58.15467834 222.15119934 C54.06202209 221.41252233 49.97001237 220.67043604 45.87866211 219.92456055 C37.56380662 218.41510571 29.24386162 216.98216644 20.89453125 215.67578125 C19.22647315 215.41150864 17.55842289 215.14718653 15.89038086 214.8828125 C12.74380231 214.38496232 9.59500812 213.90759812 6.44360352 213.44140625 C5.02218393 213.2181742 3.60087215 212.99425415 2.1796875 212.76953125 C0.94589355 212.58366455 -0.28790039 212.39779785 -1.55908203 212.20629883 C-5.18021605 211.2114788 -7.1164032 209.89246582 -9.8125 207.3125 C-11.3647034 204.2080932 -10.96419413 200.920796 -10.96640015 197.51286316 C-10.9707824 196.69797167 -10.97516465 195.88308017 -10.9796797 195.043495 C-10.99309466 192.2974677 -10.99925258 189.5514725 -11.00537109 186.80541992 C-11.01326987 184.84281773 -11.02153868 182.88021699 -11.03015137 180.9176178 C-11.05639507 174.45941561 -11.07168025 168.00120685 -11.0859375 161.54296875 C-11.09129601 159.32232471 -11.09667351 157.10168071 -11.10206985 154.88103676 C-11.12370104 145.64636771 -11.14243922 136.41170043 -11.15369225 127.17701244 C-11.16994091 113.92850186 -11.20313837 100.68028415 -11.26009309 87.43188399 C-11.29874798 78.12398684 -11.3183196 68.81616817 -11.32361281 59.50819284 C-11.32727205 53.94506372 -11.33935438 48.38224679 -11.37171555 42.81920433 C-11.40171813 37.58657141 -11.40813588 32.35444084 -11.39633179 27.12174034 C-11.3961104 25.20003897 -11.40446868 23.27831481 -11.42198563 21.35669327 C-11.44458654 18.73488219 -11.4364254 16.11490676 -11.42050171 13.49308777 C-11.4343838 12.73082656 -11.44826588 11.96856534 -11.46256864 11.18320531 C-11.40508489 7.34766604 -10.91398699 5.45211541 -8.63778114 2.32074451 C-5.38895613 0.01143982 -3.92428644 -0.2364028 0 0 Z " fill="#49A4FE" transform="translate(42.8125,179.6875)"/>
<path d="M0 0 C1.28992355 -0.00554901 2.57984711 -0.01109802 3.90885925 -0.01681519 C7.44006301 -0.03104557 10.97048642 -0.01401989 14.50161552 0.00946999 C18.20017049 0.02960069 21.89869375 0.02369828 25.59729004 0.0213623 C31.80799199 0.02141585 38.01838947 0.0411583 44.22900391 0.07324219 C51.40512854 0.11013413 58.5808544 0.11891753 65.75706148 0.11194468 C72.66570695 0.10563518 79.57421594 0.11640218 86.48283386 0.13591003 C89.42052661 0.14407593 92.35814952 0.14679508 95.29585266 0.1452179 C99.3992621 0.14417419 103.50214772 0.1683704 107.60546875 0.1953125 C109.43219368 0.1909166 109.43219368 0.1909166 111.29582214 0.18643188 C112.41455215 0.19778168 113.53328217 0.20913147 114.68591309 0.2208252 C115.65559776 0.22455391 116.62528244 0.22828262 117.6243515 0.23212433 C120.81111338 0.6879518 122.7085672 1.73792472 125.30273438 3.61523438 C126.70731174 6.42438911 126.55168595 8.50333972 126.30273438 11.61523438 C124.52289033 14.75115008 123.77965231 15.45626173 120.30273438 16.61523438 C118.51273399 16.71606778 116.71923081 16.75885168 114.92642212 16.76913452 C113.81044144 16.77773499 112.69446075 16.78633545 111.54466248 16.79519653 C110.3196553 16.79945648 109.09464813 16.80371643 107.83251953 16.80810547 C105.89807228 16.8203717 105.89807228 16.8203717 103.92454529 16.83288574 C99.64698367 16.85907405 95.36941239 16.87440752 91.09179688 16.88867188 C89.6187273 16.89403237 88.1456578 16.89940988 86.67258835 16.90480423 C80.54582123 16.9264259 74.41905672 16.94516338 68.29226112 16.95642662 C59.51300601 16.97267296 50.73419294 17.00587488 41.95510447 17.06282747 C35.78091919 17.10151612 29.60685221 17.12105784 23.43254888 17.12634718 C19.74508045 17.13000143 16.05808382 17.14202981 12.37074661 17.17444992 C8.2574758 17.21009816 4.14515682 17.20616255 0.03173828 17.19873047 C-1.79969978 17.22333847 -1.79969978 17.22333847 -3.6681366 17.2484436 C-12.85362978 17.18031952 -12.85362978 17.18031952 -15.95376587 14.26626587 C-17.69726562 11.61523438 -17.69726562 11.61523438 -18.32226562 8.61523438 C-17.67913342 5.52819977 -16.86972264 3.82906284 -14.56648254 1.66398621 C-10.23282079 -0.76747889 -4.82407743 -0.05253904 0 0 Z " fill="#4AA5FF" transform="translate(305.697265625,283.384765625)"/>
<path d="M0 0 C1.28992355 -0.00554901 2.57984711 -0.01109802 3.90885925 -0.01681519 C7.44006301 -0.03104557 10.97048642 -0.01401989 14.50161552 0.00946999 C18.20017049 0.02960069 21.89869375 0.02369828 25.59729004 0.0213623 C31.80799199 0.02141585 38.01838947 0.0411583 44.22900391 0.07324219 C51.40512854 0.11013413 58.5808544 0.11891753 65.75706148 0.11194468 C72.66570695 0.10563518 79.57421594 0.11640218 86.48283386 0.13591003 C89.42052661 0.14407593 92.35814952 0.14679508 95.29585266 0.1452179 C99.3992621 0.14417419 103.50214772 0.1683704 107.60546875 0.1953125 C109.43219368 0.1909166 109.43219368 0.1909166 111.29582214 0.18643188 C112.41455215 0.19778168 113.53328217 0.20913147 114.68591309 0.2208252 C115.65559776 0.22455391 116.62528244 0.22828262 117.6243515 0.23212433 C120.81111338 0.6879518 122.7085672 1.73792472 125.30273438 3.61523438 C126.70731174 6.42438911 126.55168595 8.50333972 126.30273438 11.61523438 C124.52289033 14.75115008 123.77965231 15.45626173 120.30273438 16.61523438 C118.51273399 16.71606778 116.71923081 16.75885168 114.92642212 16.76913452 C113.81044144 16.77773499 112.69446075 16.78633545 111.54466248 16.79519653 C110.3196553 16.79945648 109.09464813 16.80371643 107.83251953 16.80810547 C105.89807228 16.8203717 105.89807228 16.8203717 103.92454529 16.83288574 C99.64698367 16.85907405 95.36941239 16.87440752 91.09179688 16.88867188 C89.6187273 16.89403237 88.1456578 16.89940988 86.67258835 16.90480423 C80.54582123 16.9264259 74.41905672 16.94516338 68.29226112 16.95642662 C59.51300601 16.97267296 50.73419294 17.00587488 41.95510447 17.06282747 C35.78091919 17.10151612 29.60685221 17.12105784 23.43254888 17.12634718 C19.74508045 17.13000143 16.05808382 17.14202981 12.37074661 17.17444992 C8.2574758 17.21009816 4.14515682 17.20616255 0.03173828 17.19873047 C-1.79969978 17.22333847 -1.79969978 17.22333847 -3.6681366 17.2484436 C-12.85362978 17.18031952 -12.85362978 17.18031952 -15.95376587 14.26626587 C-17.69726562 11.61523438 -17.69726562 11.61523438 -18.32226562 8.61523438 C-17.67913342 5.52819977 -16.86972264 3.82906284 -14.56648254 1.66398621 C-10.23282079 -0.76747889 -4.82407743 -0.05253904 0 0 Z " fill="#4AA5FF" transform="translate(97.697265625,283.384765625)"/>
<path d="M0 0 C0.9778093 -0.00554901 1.95561859 -0.01109802 2.96305847 -0.01681519 C6.19136748 -0.02861436 9.41827378 -0.00433254 12.64648438 0.02148438 C14.89180436 0.02319546 17.13712635 0.02312982 19.38244629 0.0213623 C24.08670174 0.02301571 28.79048076 0.04171827 33.49462891 0.07324219 C39.52404007 0.11291941 45.55282712 0.11728746 51.58234406 0.10977936 C56.2183402 0.10670954 60.85419609 0.11883071 65.49015808 0.13591003 C67.71330383 0.14294039 69.93646548 0.14606452 72.15962219 0.1452179 C75.26686319 0.14701597 78.37335698 0.16839946 81.48046875 0.1953125 C82.39906174 0.1923819 83.31765472 0.18945129 84.26408386 0.18643188 C89.05386571 0.25042776 92.37603763 0.45115905 96.24023438 3.61523438 C97.64481174 6.42438911 97.48918595 8.50333972 97.24023438 11.61523438 C95.46039033 14.75115008 94.71715231 15.45626173 91.24023438 16.61523438 C89.8556056 16.71340306 88.46683048 16.75861896 87.07876587 16.76913452 C86.23203812 16.77773499 85.38531036 16.78633545 84.51292419 16.79519653 C83.58714066 16.79945648 82.66135712 16.80371643 81.70751953 16.80810547 C80.73000229 16.81628296 79.75248505 16.82446045 78.74534607 16.83288574 C75.50666925 16.85772336 72.26803614 16.87424961 69.02929688 16.88867188 C67.37135164 16.89665739 67.37135164 16.89665739 65.67991257 16.90480423 C59.83218835 16.93152579 53.98448543 16.95090589 48.13671875 16.96533203 C42.09147921 16.98199818 36.04678287 17.02679574 30.00174904 17.07770348 C25.35722206 17.11132053 20.71282508 17.12290327 16.06818771 17.12855911 C13.83940849 17.13528441 11.61063819 17.15053944 9.38197708 17.17444992 C6.2647765 17.20599122 3.14905587 17.20615475 0.03173828 17.19873047 C-0.8899968 17.2151358 -1.81173187 17.23154114 -2.76139832 17.2484436 C-7.25501196 17.20458923 -9.15962973 17.07398583 -12.83267212 14.26626587 C-14.75976562 11.61523438 -14.75976562 11.61523438 -15.38476562 8.61523438 C-13.61716022 0.13072844 -7.26442958 -0.10488857 0 0 Z " fill="#4AA5FF" transform="translate(334.759765625,315.384765625)"/>
<path d="M0 0 C0.9778093 -0.00554901 1.95561859 -0.01109802 2.96305847 -0.01681519 C6.19136748 -0.02861436 9.41827378 -0.00433254 12.64648438 0.02148438 C14.89180436 0.02319546 17.13712635 0.02312982 19.38244629 0.0213623 C24.08670174 0.02301571 28.79048076 0.04171827 33.49462891 0.07324219 C39.52404007 0.11291941 45.55282712 0.11728746 51.58234406 0.10977936 C56.2183402 0.10670954 60.85419609 0.11883071 65.49015808 0.13591003 C67.71330383 0.14294039 69.93646548 0.14606452 72.15962219 0.1452179 C75.26686319 0.14701597 78.37335698 0.16839946 81.48046875 0.1953125 C82.39906174 0.1923819 83.31765472 0.18945129 84.26408386 0.18643188 C89.05386571 0.25042776 92.37603763 0.45115905 96.24023438 3.61523438 C97.64481174 6.42438911 97.48918595 8.50333972 97.24023438 11.61523438 C95.46039033 14.75115008 94.71715231 15.45626173 91.24023438 16.61523438 C89.8556056 16.71340306 88.46683048 16.75861896 87.07876587 16.76913452 C86.23203812 16.77773499 85.38531036 16.78633545 84.51292419 16.79519653 C83.58714066 16.79945648 82.66135712 16.80371643 81.70751953 16.80810547 C80.73000229 16.81628296 79.75248505 16.82446045 78.74534607 16.83288574 C75.50666925 16.85772336 72.26803614 16.87424961 69.02929688 16.88867188 C67.37135164 16.89665739 67.37135164 16.89665739 65.67991257 16.90480423 C59.83218835 16.93152579 53.98448543 16.95090589 48.13671875 16.96533203 C42.09147921 16.98199818 36.04678287 17.02679574 30.00174904 17.07770348 C25.35722206 17.11132053 20.71282508 17.12290327 16.06818771 17.12855911 C13.83940849 17.13528441 11.61063819 17.15053944 9.38197708 17.17444992 C6.2647765 17.20599122 3.14905587 17.20615475 0.03173828 17.19873047 C-0.8899968 17.2151358 -1.81173187 17.23154114 -2.76139832 17.2484436 C-7.25501196 17.20458923 -9.15962973 17.07398583 -12.83267212 14.26626587 C-14.75976562 11.61523438 -14.75976562 11.61523438 -15.38476562 8.61523438 C-13.61716022 0.13072844 -7.26442958 -0.10488857 0 0 Z " fill="#4AA5FF" transform="translate(94.759765625,315.384765625)"/>
<path d="M0 0 C7.97288426 0.78408282 15.77667367 2.1573538 23.6484375 3.62695312 C24.62296875 3.80291016 25.5975 3.97886719 26.6015625 4.16015625 C27.47119629 4.32136963 28.34083008 4.48258301 29.23681641 4.64868164 C34.87616219 5.36568275 40.06821668 4.9615344 45.6328125 3.90625 C47.46005859 3.56787109 47.46005859 3.56787109 49.32421875 3.22265625 C50.57847656 2.98417969 51.83273437 2.74570312 53.125 2.5 C55.62684785 2.02722998 58.12942951 1.55832267 60.6328125 1.09375 C61.73512207 0.88427734 62.83743164 0.67480469 63.97314453 0.45898438 C66.7109166 0.04383584 69.23797525 -0.08982194 72 0 C66.83070446 9.76711117 59.42738889 16.33110391 49 20 C47.88625 20.4125 46.7725 20.825 45.625 21.25 C33.62065887 23.73365679 22.54388209 21.25592745 12.29296875 14.671875 C6.72788813 10.61420123 2.6718247 6.44381252 0 0 Z " fill="#48A1FB" transform="translate(220,438)"/>
<path d="M0 0 C7 6 7 6 12 12 C4.74 19.26 -2.52 26.52 -10 34 C-17 28 -17 28 -22 22 C-14.74 14.74 -7.48 7.48 0 0 Z " fill="#48A1FB" transform="translate(468,52)"/>
<path d="M0 0 C4.32883834 3.62931573 8.46656422 7.34966784 12.4375 11.375 C13.30246094 12.24898437 14.16742188 13.12296875 15.05859375 14.0234375 C15.69925781 14.67570312 16.33992188 15.32796875 17 16 C12.61667975 18.9222135 7.80576639 20.64678381 2.9375 22.625 C1.91849609 23.04523438 0.89949219 23.46546875 -0.15039062 23.8984375 C-1.12298828 24.29546875 -2.09558594 24.6925 -3.09765625 25.1015625 C-3.98976807 25.46588379 -4.88187988 25.83020508 -5.80102539 26.20556641 C-8 27 -8 27 -10 27 C-9.37344935 23.33597797 -8.35781607 20.12938799 -6.93359375 16.69921875 C-6.3293457 15.23452148 -6.3293457 15.23452148 -5.71289062 13.74023438 C-5.29201172 12.73283203 -4.87113281 11.72542969 -4.4375 10.6875 C-4.01275391 9.66076172 -3.58800781 8.63402344 -3.15039062 7.57617188 C-2.10429072 5.04907659 -1.05404084 2.52379106 0 0 Z " fill="#E0EDFB" transform="translate(273,242)"/>
</svg>
