<svg id="visual" viewBox="0 0 1000 200" width="1000" height="200" xmlns="http://www.w3.org/2000/svg" xmlns:xlink="http://www.w3.org/1999/xlink" version="1.1"><rect x="0" y="0" width="1000" height="200" fill="#001220"></rect><defs><linearGradient id="grad1_0" x1="80%" y1="0%" x2="100%" y2="100%"><stop offset="-50%" stop-color="#2563eb" stop-opacity="1"></stop><stop offset="150%" stop-color="#2563eb" stop-opacity="1"></stop></linearGradient></defs><defs><linearGradient id="grad1_1" x1="80%" y1="0%" x2="100%" y2="100%"><stop offset="-50%" stop-color="#2563eb" stop-opacity="1"></stop><stop offset="150%" stop-color="#005acd" stop-opacity="1"></stop></linearGradient></defs><defs><linearGradient id="grad1_2" x1="80%" y1="0%" x2="100%" y2="100%"><stop offset="-50%" stop-color="#004faf" stop-opacity="1"></stop><stop offset="150%" stop-color="#005acd" stop-opacity="1"></stop></linearGradient></defs><defs><linearGradient id="grad1_3" x1="80%" y1="0%" x2="100%" y2="100%"><stop offset="-50%" stop-color="#004faf" stop-opacity="1"></stop><stop offset="150%" stop-color="#004491" stop-opacity="1"></stop></linearGradient></defs><defs><linearGradient id="grad1_4" x1="80%" y1="0%" x2="100%" y2="100%"><stop offset="-50%" stop-color="#003873" stop-opacity="1"></stop><stop offset="150%" stop-color="#004491" stop-opacity="1"></stop></linearGradient></defs><defs><linearGradient id="grad1_5" x1="80%" y1="0%" x2="100%" y2="100%"><stop offset="-50%" stop-color="#003873" stop-opacity="1"></stop><stop offset="150%" stop-color="#002b56" stop-opacity="1"></stop></linearGradient></defs><defs><linearGradient id="grad1_6" x1="80%" y1="0%" x2="100%" y2="100%"><stop offset="-50%" stop-color="#001f3a" stop-opacity="1"></stop><stop offset="150%" stop-color="#002b56" stop-opacity="1"></stop></linearGradient></defs><defs><linearGradient id="grad1_7" x1="80%" y1="0%" x2="100%" y2="100%"><stop offset="-50%" stop-color="#001f3a" stop-opacity="1"></stop><stop offset="150%" stop-color="#001220" stop-opacity="1"></stop></linearGradient></defs><defs><linearGradient id="grad2_0" x1="0%" y1="0%" x2="20%" y2="100%"><stop offset="-50%" stop-color="#2563eb" stop-opacity="1"></stop><stop offset="150%" stop-color="#2563eb" stop-opacity="1"></stop></linearGradient></defs><defs><linearGradient id="grad2_1" x1="0%" y1="0%" x2="20%" y2="100%"><stop offset="-50%" stop-color="#005acd" stop-opacity="1"></stop><stop offset="150%" stop-color="#2563eb" stop-opacity="1"></stop></linearGradient></defs><defs><linearGradient id="grad2_2" x1="0%" y1="0%" x2="20%" y2="100%"><stop offset="-50%" stop-color="#005acd" stop-opacity="1"></stop><stop offset="150%" stop-color="#004faf" stop-opacity="1"></stop></linearGradient></defs><defs><linearGradient id="grad2_3" x1="0%" y1="0%" x2="20%" y2="100%"><stop offset="-50%" stop-color="#004491" stop-opacity="1"></stop><stop offset="150%" stop-color="#004faf" stop-opacity="1"></stop></linearGradient></defs><defs><linearGradient id="grad2_4" x1="0%" y1="0%" x2="20%" y2="100%"><stop offset="-50%" stop-color="#004491" stop-opacity="1"></stop><stop offset="150%" stop-color="#003873" stop-opacity="1"></stop></linearGradient></defs><defs><linearGradient id="grad2_5" x1="0%" y1="0%" x2="20%" y2="100%"><stop offset="-50%" stop-color="#002b56" stop-opacity="1"></stop><stop offset="150%" stop-color="#003873" stop-opacity="1"></stop></linearGradient></defs><defs><linearGradient id="grad2_6" x1="0%" y1="0%" x2="20%" y2="100%"><stop offset="-50%" stop-color="#002b56" stop-opacity="1"></stop><stop offset="150%" stop-color="#001f3a" stop-opacity="1"></stop></linearGradient></defs><defs><linearGradient id="grad2_7" x1="0%" y1="0%" x2="20%" y2="100%"><stop offset="-50%" stop-color="#001220" stop-opacity="1"></stop><stop offset="150%" stop-color="#001f3a" stop-opacity="1"></stop></linearGradient></defs><g transform="translate(1000, 0)"><path d="M0 200C-17 198.4 -34 196.8 -51.8 193.2C-69.6 189.6 -88.2 184.1 -98 169.7C-107.8 155.4 -109 132.3 -118.1 118.1C-127.2 103.9 -144.4 98.7 -151.6 87.5C-158.7 76.3 -155.9 59.1 -162.3 43.5C-168.7 27.9 -184.3 13.9 -200 0L0 0Z" fill="#00192d"></path><path d="M0 175C-14.9 173.6 -29.7 172.2 -45.3 169C-60.9 165.9 -77.1 161.1 -85.7 148.5C-94.4 136 -95.3 115.7 -103.3 103.3C-111.3 90.9 -126.3 86.4 -132.6 76.6C-138.9 66.8 -136.4 51.7 -142 38C-147.6 24.4 -161.3 12.2 -175 0L0 0Z" fill="#002548"></path><path d="M0 150C-12.7 148.8 -25.5 147.6 -38.8 144.9C-52.2 142.2 -66.1 138.1 -73.5 127.3C-80.9 116.6 -81.7 99.2 -88.6 88.6C-95.4 77.9 -108.3 74 -113.7 65.6C-119 57.2 -116.9 44.3 -121.7 32.6C-126.5 20.9 -138.3 10.5 -150 0L0 0Z" fill="#003264"></path><path d="M0 125C-10.6 124 -21.2 123 -32.4 120.7C-43.5 118.5 -55.1 115 -61.2 106.1C-67.4 97.1 -68.1 82.7 -73.8 73.8C-79.5 64.9 -90.2 61.7 -94.7 54.7C-99.2 47.7 -97.4 36.9 -101.4 27.2C-105.4 17.4 -115.2 8.7 -125 0L0 0Z" fill="#003e82"></path><path d="M0 100C-8.5 99.2 -17 98.4 -25.9 96.6C-34.8 94.8 -44.1 92 -49 84.9C-53.9 77.7 -54.5 66.1 -59 59C-63.6 52 -72.2 49.4 -75.8 43.8C-79.4 38.1 -77.9 29.5 -81.1 21.7C-84.3 13.9 -92.2 7 -100 0L0 0Z" fill="#004aa0"></path><path d="M0 75C-6.4 74.4 -12.7 73.8 -19.4 72.4C-26.1 71.1 -33.1 69 -36.7 63.7C-40.4 58.3 -40.9 49.6 -44.3 44.3C-47.7 39 -54.1 37 -56.8 32.8C-59.5 28.6 -58.5 22.1 -60.9 16.3C-63.3 10.5 -69.1 5.2 -75 0L0 0Z" fill="#0055be"></path><path d="M0 50C-4.2 49.6 -8.5 49.2 -12.9 48.3C-17.4 47.4 -22 46 -24.5 42.4C-27 38.9 -27.2 33.1 -29.5 29.5C-31.8 26 -36.1 24.7 -37.9 21.9C-39.7 19.1 -39 14.8 -40.6 10.9C-42.2 7 -46.1 3.5 -50 0L0 0Z" fill="#005edc"></path><path d="M0 25C-2.1 24.8 -4.2 24.6 -6.5 24.1C-8.7 23.7 -11 23 -12.2 21.2C-13.5 19.4 -13.6 16.5 -14.8 14.8C-15.9 13 -18 12.3 -18.9 10.9C-19.8 9.5 -19.5 7.4 -20.3 5.4C-21.1 3.5 -23 1.7 -25 0L0 0Z" fill="#2563eb"></path></g><g transform="translate(0, 200)"><path d="M0 -200C18.6 -200.8 37.2 -201.5 51.8 -193.2C66.3 -184.9 76.8 -167.5 90 -155.9C103.2 -144.3 119.1 -138.5 125.9 -125.9C132.6 -113.2 130.1 -93.8 140.3 -81C150.5 -68.2 173.4 -62.1 185.5 -49.7C197.5 -37.3 198.8 -18.7 200 0L0 0Z" fill="#00192d"></path><path d="M0 -175C16.3 -175.7 32.6 -176.3 45.3 -169C58 -161.8 67.2 -146.5 78.7 -136.4C90.3 -126.3 104.3 -121.2 110.1 -110.1C116 -99.1 113.8 -82.1 122.8 -70.9C131.7 -59.7 151.7 -54.3 162.3 -43.5C172.8 -32.6 173.9 -16.3 175 0L0 0Z" fill="#002548"></path><path d="M0 -150C14 -150.6 27.9 -151.1 38.8 -144.9C49.7 -138.7 57.6 -125.6 67.5 -116.9C77.4 -108.2 89.4 -103.9 94.4 -94.4C99.4 -84.9 97.6 -70.3 105.2 -60.8C112.9 -51.2 130 -46.6 139.1 -37.3C148.1 -28 149.1 -14 150 0L0 0Z" fill="#003264"></path><path d="M0 -125C11.6 -125.5 23.3 -125.9 32.4 -120.7C41.4 -115.5 48 -104.7 56.2 -97.4C64.5 -90.2 74.5 -86.6 78.7 -78.7C82.9 -70.8 81.3 -58.6 87.7 -50.6C94.1 -42.6 108.4 -38.8 115.9 -31.1C123.5 -23.3 124.2 -11.7 125 0L0 0Z" fill="#003e82"></path><path d="M0 -100C9.3 -100.4 18.6 -100.8 25.9 -96.6C33.2 -92.4 38.4 -83.7 45 -77.9C51.6 -72.1 59.6 -69.2 62.9 -62.9C66.3 -56.6 65 -46.9 70.1 -40.5C75.2 -34.1 86.7 -31 92.7 -24.8C98.8 -18.7 99.4 -9.3 100 0L0 0Z" fill="#004aa0"></path><path d="M0 -75C7 -75.3 14 -75.6 19.4 -72.4C24.9 -69.3 28.8 -62.8 33.7 -58.5C38.7 -54.1 44.7 -51.9 47.2 -47.2C49.7 -42.5 48.8 -35.2 52.6 -30.4C56.4 -25.6 65 -23.3 69.5 -18.6C74.1 -14 74.5 -7 75 0L0 0Z" fill="#0055be"></path><path d="M0 -50C4.7 -50.2 9.3 -50.4 12.9 -48.3C16.6 -46.2 19.2 -41.9 22.5 -39C25.8 -36.1 29.8 -34.6 31.5 -31.5C33.1 -28.3 32.5 -23.4 35.1 -20.3C37.6 -17.1 43.3 -15.5 46.4 -12.4C49.4 -9.3 49.7 -4.7 50 0L0 0Z" fill="#005edc"></path><path d="M0 -25C2.3 -25.1 4.7 -25.2 6.5 -24.1C8.3 -23.1 9.6 -20.9 11.2 -19.5C12.9 -18 14.9 -17.3 15.7 -15.7C16.6 -14.2 16.3 -11.7 17.5 -10.1C18.8 -8.5 21.7 -7.8 23.2 -6.2C24.7 -4.7 24.8 -2.3 25 0L0 0Z" fill="#2563eb"></path></g></svg>